<svg xmlns="http://www.w3.org/2000/svg" viewBox="0 0 110 110">
  <!-- Python official logo - Blue snake -->
  <path d="M54.9 17.2c-9.5 0-13.6 4.5-13.6 12.5v5.8h15.3v2H31.1C23 37.5 18.6 42.1 18.6 50.6v9.5C18.6 68.6 23.1 73.3 31.1 73.3h4.4v-6.8c0-8.5 4.5-13.1 12.5-13.1h15.4c7.1 0 10.6-3.8 10.6-10.4V29.7c0-8-4.1-12.5-13.6-12.5H54.9zm-8.2 7.4c1.8 0 3.3 1.5 3.3 3.3s-1.5 3.3-3.3 3.3-3.3-1.5-3.3-3.3 1.5-3.3 3.3-3.3z" fill="#3776AB"/>
  <!-- Yellow snake -->
  <path d="M55.1 92.9c9.5 0 13.6-4.5 13.6-12.5v-5.8H53.4v-2h25.5c8.1 0 12.5-4.6 12.5-13.1v-9.5c0-8.5-4.5-13.2-12.5-13.2h-4.4v6.8c0 8.5-4.5 13.1-12.5 13.1H46.6c-7.1 0-10.6 3.8-10.6 10.4v13.3c0 8 4.1 12.5 13.6 12.5h5.5zm8.2-7.4c-1.8 0-3.3-1.5-3.3-3.3s1.5-3.3 3.3-3.3 3.3 1.5 3.3 3.3-1.5 3.3-3.3 3.3z" fill="#FFD43B"/>
</svg>
